<svg width="16" height="18" viewBox="0 0 16 18" fill="none" xmlns="http://www.w3.org/2000/svg">
<path d="M8.00042 3.93128L7.28337 3.14514C5.60026 1.29979 2.51406 1.93659 1.39999 4.25662C0.876952 5.34783 0.758944 6.92331 1.71401 8.93399C2.63407 10.87 4.54819 13.189 8.00042 15.7149C11.4526 13.189 13.3658 10.87 14.2868 8.93399C15.2419 6.92224 15.1249 5.34783 14.6008 4.25662C13.4868 1.93659 10.4006 1.29872 8.71746 3.14407L8.00042 3.93128ZM8.00042 17.0002C-7.33358 6.19263 3.27911 -2.24265 7.82441 2.21926C7.88441 2.27793 7.94341 2.33873 8.00042 2.40166C8.05684 2.33879 8.11556 2.2783 8.17643 2.22033C12.7207 -2.24478 23.3344 6.19157 8.00042 17.0002Z" fill="black"/>
</svg>
