<svg width="118" height="20" viewBox="0 0 118 20" fill="none" xmlns="http://www.w3.org/2000/svg">
<path fill-rule="evenodd" clip-rule="evenodd" d="M0 0H0.553341C1.75086 0 2.96548 0.448983 4.0521 1.09917C4.94385 1.63276 5.77465 2.31671 6.47279 3.0479C7.44377 1.92427 8.5813 1.1377 9.36381 0.744303L9.6143 0.618371L9.8648 0.744304C10.6473 1.1377 11.7848 1.92427 12.7558 3.0479C13.454 2.31671 14.2848 1.63276 15.1765 1.09917C16.2631 0.448983 17.4778 0 18.6753 0H19.2286V9.65754C19.2286 12.3521 18.0182 14.9294 16.2361 16.8285C14.4575 18.7239 12.0544 20 9.6143 20C7.17423 20 4.77115 18.7239 2.99251 16.8285C1.2104 14.9294 0 12.3521 0 9.65754V0ZM12.0255 3.89096C11.2381 2.94124 10.3026 2.24557 9.6143 1.85565C8.926 2.24557 7.99045 2.94124 7.20312 3.89096C7.56655 4.35605 7.874 4.8307 8.10497 5.29206C8.39011 5.86159 8.57679 6.4469 8.57679 6.98631V14.3746L7.81584 14.0696C7.19482 13.8207 6.38698 13.1511 5.73864 12.1244C5.07969 11.081 4.56506 9.63936 4.56506 7.80823C4.56506 6.3057 5.08444 5.00161 5.79534 3.93581C5.13548 3.22038 4.33398 2.54826 3.47975 2.03713C2.68893 1.56393 1.8771 1.2429 1.10668 1.13548V9.65754C1.10668 12.0314 2.17882 14.3515 3.80321 16.0825C5.43108 17.8172 7.55848 18.9041 9.6143 18.9041C11.6701 18.9041 13.7975 17.8172 15.4254 16.0825C17.0498 14.3515 18.1219 12.0314 18.1219 9.65754V1.13548C17.3515 1.24291 16.5397 1.56393 15.7489 2.03713C14.8946 2.54826 14.0931 3.22038 13.4332 3.93581C14.1441 5.00161 14.6635 6.3057 14.6635 7.80823C14.6635 9.63937 14.1489 11.081 13.49 12.1244C12.8416 13.1511 12.0338 13.8207 11.4128 14.0696L10.6518 14.3746V6.98631C10.6518 6.4469 10.8385 5.86159 11.1236 5.29206C11.3546 4.8307 11.662 4.35605 12.0255 3.89096ZM12.696 4.83392C12.4622 5.15776 12.2665 5.47645 12.1151 5.77881C11.8697 6.269 11.7585 6.68101 11.7585 6.98631V12.5205C12.0156 12.2774 12.2924 11.9539 12.5516 11.5434C13.1031 10.6701 13.5569 9.42914 13.5569 7.80823C13.5569 6.69486 13.213 5.69688 12.696 4.83392ZM6.53257 4.83392C6.01559 5.69688 5.67175 6.69486 5.67175 7.80823C5.67175 9.42914 6.12547 10.6701 6.67695 11.5434C6.93619 11.9539 7.213 12.2774 7.47011 12.5205V6.98631C7.47011 6.68101 7.35886 6.269 7.11345 5.77881C6.96207 5.47645 6.76638 5.15776 6.53257 4.83392ZM97.3057 0.180705C97.9384 -0.0290663 98.6184 -0.0567983 99.2664 0.100687C99.9143 0.258181 100.504 0.594447 100.967 1.07043C101.429 1.54641 101.747 2.14267 101.881 2.78988L100.797 3.01058C100.705 2.56642 100.487 2.15724 100.17 1.83055C99.852 1.50386 99.4473 1.27307 99.0026 1.165C98.5579 1.05691 98.0912 1.07596 97.6571 1.21989C97.2228 1.36384 96.8387 1.62681 96.5493 1.97825C96.26 2.32967 96.0772 2.75521 96.0221 3.20548C95.9672 3.65564 96.0423 4.11198 96.2388 4.52152C96.3077 4.66523 96.4796 4.86961 96.7614 5.09319C97.0337 5.30924 97.3692 5.51199 97.7104 5.66556C97.9392 5.76854 98.5596 6.02019 99.138 6.25185C99.4239 6.36637 99.6948 6.47412 99.8942 6.55327C99.9939 6.59284 100.076 6.62524 100.133 6.64774L100.213 6.67935C103.02 7.68 104.935 9.58747 105.31 11.7563C105.593 13.3973 105.281 15.0848 104.429 16.5201C103.577 17.9555 102.24 19.046 100.654 19.5993C99.0685 20.1524 97.3362 20.1323 95.7639 19.5427C94.1916 18.9529 92.8806 17.8316 92.0627 16.377C91.2449 14.9224 90.9728 13.2282 91.2948 11.5941C91.6102 9.99352 92.4563 8.3068 93.7904 7.24427L94.484 8.09822C93.4013 8.9605 92.6596 10.3903 92.381 11.804C92.109 13.1842 92.3388 14.6152 93.0296 15.8439C93.7205 17.0725 94.8278 18.0197 96.1559 18.5179C97.4839 19.0159 98.9471 19.0328 100.287 18.5657C101.626 18.0983 102.755 17.1771 103.475 15.9648C104.195 14.7524 104.458 13.3271 104.219 11.9409C103.934 10.2902 102.412 8.62556 99.8295 7.70751L99.8204 7.7043L99.8115 7.70079L100.016 7.19179C99.8115 7.70079 99.8115 7.70079 99.8115 7.70079L99.8111 7.70063L99.7221 7.66542C99.6649 7.6428 99.5827 7.61026 99.4826 7.57053C99.2824 7.4911 99.0103 7.38287 98.723 7.26778C98.1549 7.04022 97.5078 6.77818 97.2524 6.66322C96.8328 6.47433 96.4178 6.22482 96.0694 5.94842C95.7305 5.67954 95.4116 5.35127 95.2391 4.99173C94.9528 4.39485 94.8434 3.72981 94.9235 3.07385C95.0037 2.41799 95.2699 1.79786 95.6916 1.28572C96.1133 0.773641 96.6729 0.390469 97.3057 0.180705ZM21.442 20V1.23128e-05H22.5487V20H21.442ZM24.762 1.23128e-05H25.8687V18.9041H33.7538V20H24.762V1.23128e-05ZM57.1325 1.23128e-05H62.2509C65.8755 1.23128e-05 68.9912 3.10456 69.029 7.01886H69.0293C69.0293 7.03086 69.0293 7.04284 69.0292 7.05482C69.0293 7.06679 69.0293 7.07877 69.0293 7.09075H69.029C69.0008 10.0213 67.2521 12.4884 64.8599 13.5509L69.1968 19.3307L68.3085 19.9843L63.7629 13.9263C63.2738 14.0462 62.7672 14.1096 62.2509 14.1096H58.2392V20H57.1325V1.23128e-05ZM58.2392 12.9899L63.8818 12.7527C66.1447 12.0149 67.9072 9.78441 67.9225 7.05476C67.9036 3.68671 65.2336 1.0959 62.2509 1.0959H58.2392V12.9899ZM70.966 10C70.966 4.52514 75.0693 1.23128e-05 80.2345 1.23128e-05C85.3996 1.23128e-05 89.5029 4.52514 89.5029 10C89.5029 15.4749 85.3996 20 80.2345 20C75.0693 20 70.966 15.4749 70.966 10ZM80.2345 1.0959C75.7731 1.0959 72.0727 5.03442 72.0727 10C72.0727 14.9656 75.7731 18.9041 80.2345 18.9041C84.6958 18.9041 88.3962 14.9656 88.3962 10C88.3962 5.03442 84.6958 1.0959 80.2345 1.0959ZM107.072 1.23128e-05H118V1.0959H108.178V10.6849H116.478V11.7808H108.178V18.9041H118V20H107.072V1.23128e-05ZM45.2774 3.00392C43.6802 1.62827 41.6605 1.08353 40.0721 1.09611L40.0699 1.09613H37.0739V18.9038H40.0699L40.0721 18.9039C41.6605 18.9164 43.6802 18.3717 45.2774 16.9961C46.856 15.6363 48.0664 13.4271 47.9997 10.0105L48.5472 10L47.9997 9.98953C48.0664 6.57288 46.856 4.36364 45.2774 3.00392ZM49.1064 10C49.1761 6.29305 47.8486 3.76615 46.0037 2.17705C44.1762 0.602986 41.8848 -0.0136498 40.0655 0.000242436H35.9672V19.9997H40.0654C41.8847 20.0136 44.1761 19.397 46.0037 17.8229C47.8486 16.2338 49.1761 13.707 49.1064 10Z" fill="#C15FAC"/>
</svg>
